<?xml version="1.0" encoding="utf-8"?>
<!-- Generator: Adobe Illustrator 26.1.0, SVG Export Plug-In . SVG Version: 6.00 Build 0)  -->
<svg version="1.1" id="Layer_1" xmlns="http://www.w3.org/2000/svg" xmlns:xlink="http://www.w3.org/1999/xlink" x="0px" y="0px"
	 viewBox="0 0 48.2 48.2" style="enable-background:new 0 0 48.2 48.2;" xml:space="preserve">
<g>
	<g>
		<rect x="0" width="5.4" height="8.3"/>
	</g>
	<g>
		<rect x="9.6" y="11" width="5.4" height="4.1"/>
	</g>
	<g>
		<rect x="9.6" y="4.1" width="5.4" height="4.1"/>
	</g>
	<g>
		<rect x="0" y="17.9" width="5.4" height="4.1"/>
	</g>
	<g>
		<rect x="5.5" y="8.3" width="4.1" height="2.7"/>
	</g>
	<g>
		<rect x="5.5" y="15.2" width="4.1" height="2.7"/>
	</g>
	<g>
		<rect x="15.6" y="22" width="4.1" height="2.7"/>
	</g>
	<g>
		<rect x="26.4" y="23.4" width="4.1" height="2.7"/>
	</g>
	<g>
		<rect x="2.7" y="12.2" width="2.7" height="2.1"/>
	</g>
	<g>
		<rect x="0" y="10.2" width="2.7" height="2.1"/>
	</g>
	<g>
		<rect x="0" y="14.3" width="2.7" height="2.1"/>
	</g>
	<g>
		<rect x="15" y="40" width="5.4" height="4.1"/>
	</g>
	<g>
		<rect x="15" y="31.8" width="5.4" height="4.1"/>
	</g>
	<g>
		<rect x="15" y="15.1" width="5.4" height="4.1"/>
	</g>
	<g>
		<rect x="9.6" y="19.3" width="5.4" height="4.1"/>
	</g>
	<g>
		<rect x="20.4" y="27.6" width="5.4" height="4.1"/>
	</g>
	<g>
		<rect x="8.3" y="40" width="4.1" height="2.7"/>
	</g>
	<g>
		<rect x="12.5" y="35.9" width="2.6" height="4.1"/>
	</g>
	<g>
		<rect x="12.5" y="44.2" width="2.6" height="4"/>
	</g>
	<g>
		<rect y="31.8" width="2.7" height="4.1"/>
	</g>
	<g>
		<rect x="2.7" y="28.9" width="4.3" height="2.8"/>
	</g>
	<g>
		<rect x="2.7" y="35.9" width="4.3" height="2.8"/>
	</g>
	<g>
		<rect x="9.7" y="33.8" width="2.7" height="2.1"/>
	</g>
	<g>
		<rect x="7" y="31.8" width="2.7" height="2.1"/>
	</g>
	<g>
		<rect x="0" y="38.7" width="2.7" height="2.1"/>
	</g>
	<g>
		<rect x="0" y="42.8" width="8.3" height="5.4"/>
	</g>
	<g>
		<rect x="42.8" y="39.9" width="5.4" height="8.3"/>
	</g>
	<g>
		<rect x="33.2" y="33.1" width="5.4" height="4.1"/>
	</g>
	<g>
		<rect x="33.2" y="39.9" width="5.4" height="4.1"/>
	</g>
	<g>
		<rect x="42.8" y="26.2" width="5.4" height="4.1"/>
	</g>
	<g>
		<rect x="38.6" y="37.2" width="4.1" height="2.7"/>
	</g>
	<g>
		<rect x="38.6" y="30.3" width="4.1" height="2.7"/>
	</g>
	<g>
		<rect x="42.8" y="33.9" width="2.7" height="2.1"/>
	</g>
	<g>
		<rect x="45.5" y="35.9" width="2.7" height="2.1"/>
	</g>
	<g>
		<rect x="45.5" y="31.8" width="2.7" height="2.1"/>
	</g>
	<g>
		<rect x="27.8" y="4" width="5.4" height="4.1"/>
	</g>
	<g>
		<rect x="27.8" y="12.3" width="5.4" height="4.1"/>
	</g>
	<g>
		<rect x="27.8" y="28.9" width="5.4" height="4.1"/>
	</g>
	<g>
		<rect x="33.2" y="24.8" width="5.4" height="4.1"/>
	</g>
	<g>
		<rect x="22.4" y="16.4" width="5.4" height="4.1"/>
	</g>
	<g>
		<rect x="20.4" y="22" width="5.4" height="4.1"/>
	</g>
	<g>
		<rect x="35.8" y="5.4" width="4.1" height="2.7"/>
	</g>
	<g>
		<rect x="33.2" y="8.1" width="2.6" height="4.1"/>
	</g>
	<g>
		<rect x="33.2" width="2.6" height="4"/>
	</g>
	<g>
		<rect x="45.5" y="12.3" width="2.7" height="4.1"/>
	</g>
	<g>
		<rect x="41.2" y="16.4" width="4.3" height="2.8"/>
	</g>
	<g>
		<rect x="41.2" y="9.4" width="4.3" height="2.8"/>
	</g>
	<g>
		<rect x="35.8" y="12.3" width="2.7" height="2.1"/>
	</g>
	<g>
		<rect x="38.5" y="14.3" width="2.7" height="2.1"/>
	</g>
	<g>
		<rect x="45.5" y="7.4" width="2.7" height="2.1"/>
	</g>
	<g>
		<rect x="39.9" width="8.3" height="5.4"/>
	</g>
</g>
</svg>
